<svg width="150" height="59" viewBox="0 0 150 59" fill="none" xmlns="http://www.w3.org/2000/svg">
<path d="M16.7848 56.1203C16.0356 57.0174 14.9767 57.7157 13.6079 58.2151C12.2391 58.7053 10.7224 58.9503 9.05768 58.9503C7.30973 58.9503 5.77448 58.5712 4.45196 57.8128C3.13868 57.0452 2.12135 55.9354 1.39997 54.4834C0.687842 53.0313 0.322528 51.325 0.304031 49.3643V47.9909C0.304031 45.9748 0.641599 44.2315 1.31674 42.761C2.00112 41.2812 2.98146 40.1529 4.25774 39.376C5.54327 38.5899 7.04615 38.1968 8.76636 38.1968C11.1617 38.1968 13.0345 38.7702 14.3848 39.9171C15.7351 41.0546 16.535 42.7147 16.7848 44.8973H12.7339C12.549 43.7413 12.1374 42.8951 11.4993 42.3586C10.8704 41.8222 10.001 41.554 8.89121 41.554C7.4762 41.554 6.39875 42.0858 5.65888 43.1494C4.919 44.213 4.54444 45.7944 4.53519 47.8938V49.184C4.53519 51.3019 4.9375 52.9019 5.74212 53.9839C6.54673 55.066 7.72591 55.607 9.27964 55.607C10.8426 55.607 11.9571 55.2741 12.623 54.6082V51.1262H8.83572V48.0603H16.7848V56.1203Z" fill="#FF575F"/>
<path d="M31.573 54.5111H24.276L22.8887 58.6729H18.4633L25.9823 38.4743H29.8389L37.3995 58.6729H32.9742L31.573 54.5111ZM25.3997 51.14H30.4493L27.9106 43.5794L25.3997 51.14Z" fill="#FF575F"/>
<path d="M54.9623 56.1203C54.2132 57.0174 53.1542 57.7157 51.7855 58.2151C50.4167 58.7053 48.9 58.9503 47.2352 58.9503C45.4873 58.9503 43.9521 58.5712 42.6295 57.8128C41.3162 57.0452 40.2989 55.9354 39.5775 54.4834C38.8654 53.0313 38.5001 51.325 38.4816 49.3643V47.9909C38.4816 45.9748 38.8192 44.2315 39.4943 42.761C40.1787 41.2812 41.159 40.1529 42.4353 39.376C43.7208 38.5899 45.2237 38.1968 46.9439 38.1968C49.3393 38.1968 51.2121 38.7702 52.5624 39.9171C53.9126 41.0546 54.7126 42.7147 54.9623 44.8973H50.9115C50.7265 43.7413 50.315 42.8951 49.6768 42.3586C49.0479 41.8222 48.1786 41.554 47.0688 41.554C45.6538 41.554 44.5763 42.0858 43.8364 43.1494C43.0966 44.213 42.722 45.7944 42.7128 47.8938V49.184C42.7128 51.3019 43.1151 52.9019 43.9197 53.9839C44.7243 55.066 45.9035 55.607 47.4572 55.607C49.0202 55.607 50.1346 55.2741 50.8005 54.6082V51.1262H47.0133V48.0603H54.9623V56.1203Z" fill="#FF575F"/>
<path d="M74.3286 56.1203C73.5794 57.0174 72.5205 57.7157 71.1517 58.2151C69.783 58.7053 68.2662 58.9503 66.6015 58.9503C64.8535 58.9503 63.3183 58.5712 61.9958 57.8128C60.6825 57.0452 59.6652 55.9354 58.9438 54.4834C58.2316 53.0313 57.8663 51.325 57.8478 49.3643V47.9909C57.8478 45.9748 58.1854 44.2315 58.8605 42.761C59.5449 41.2812 60.5253 40.1529 61.8015 39.376C63.0871 38.5899 64.59 38.1968 66.3102 38.1968C68.7055 38.1968 70.5783 38.7702 71.9286 39.9171C73.2789 41.0546 74.0789 42.7147 74.3286 44.8973H70.2777C70.0928 43.7413 69.6812 42.8951 69.0431 42.3586C68.4142 41.8222 67.5448 41.554 66.435 41.554C65.02 41.554 63.9426 42.0858 63.2027 43.1494C62.4628 44.213 62.0883 45.7944 62.079 47.8938V49.184C62.079 51.3019 62.4813 52.9019 63.2859 53.9839C64.0905 55.066 65.2697 55.607 66.8234 55.607C68.3864 55.607 69.5009 55.2741 70.1668 54.6082V51.1262H66.3795V48.0603H74.3286V56.1203Z" fill="#FF575F"/>
<path d="M82.1389 58.6729H77.9771V38.4743H82.1389V58.6729Z" fill="#FF575F"/>
<path d="M101.297 38.4743V51.7782C101.297 53.9886 100.603 55.7365 99.2161 57.0221C97.8381 58.3076 95.9514 58.9503 93.5561 58.9503C91.1977 58.9503 89.3249 58.3261 87.9376 57.0775C86.5504 55.829 85.8429 54.1134 85.8151 51.9308V38.4743H89.9769V51.8059C89.9769 53.1285 90.2914 54.0949 90.9203 54.7053C91.5584 55.3065 92.437 55.607 93.5561 55.607C95.8959 55.607 97.0844 54.377 97.1213 51.9169V38.4743H101.297Z" fill="#FF575F"/>
<path d="M109.135 58.6729H104.973V38.4743H109.135V58.6729Z" fill="#FF575F"/>
<path d="M129.431 58.6729H125.269L117.167 45.3829V58.6729H113.006V38.4743H117.167L125.283 51.7921V38.4743H129.431V58.6729Z" fill="#FF575F"/>
<path d="M149.657 49.0314C149.657 51.0198 149.306 52.7631 148.603 54.2614C147.9 55.7596 146.892 56.9157 145.579 57.7296C144.275 58.5434 142.776 58.9503 141.084 58.9503C139.41 58.9503 137.916 58.548 136.603 57.7434C135.29 56.9388 134.272 55.792 133.551 54.303C132.83 52.8048 132.464 51.0846 132.455 49.1424V48.1435C132.455 46.1551 132.811 44.4072 133.523 42.8997C134.245 41.3829 135.257 40.2223 136.561 39.4176C137.875 38.6038 139.373 38.1968 141.056 38.1968C142.739 38.1968 144.233 38.6038 145.537 39.4176C146.85 40.2223 147.863 41.3829 148.575 42.8997C149.296 44.4072 149.657 46.1505 149.657 48.1297V49.0314ZM145.44 48.1158C145.44 45.9979 145.061 44.3887 144.302 43.2881C143.544 42.1875 142.462 41.6373 141.056 41.6373C139.66 41.6373 138.582 42.1829 137.824 43.2742C137.065 44.3563 136.682 45.947 136.672 48.0464V49.0314C136.672 51.0938 137.051 52.6938 137.81 53.8313C138.568 54.9689 139.66 55.5377 141.084 55.5377C142.48 55.5377 143.553 54.992 144.302 53.9007C145.051 52.8001 145.431 51.2002 145.44 49.1008V48.1158Z" fill="#FF575F"/>
<path d="M78.1386 1.34244L78.118 1.32102L77.9247 1.52299C77.8778 1.56889 77.8221 1.59949 77.7782 1.64846L77.7928 1.66376L75.3639 4.20064L73.9371 5.66952L71.5052 8.20945L71.5111 8.21557C70.2102 9.56817 67.9483 9.56511 66.6562 8.21251C66.0058 7.53316 65.6484 6.63347 65.6484 5.67258C65.6484 4.71168 66.0058 3.81199 66.6562 3.13264C67.922 1.80758 70.1165 1.78616 71.4261 3.05613L72.1989 3.85544C72.6017 4.27202 73.2692 4.27281 73.673 3.85718V3.85718C74.0575 3.46127 74.0601 2.83211 73.6788 2.43304L72.9321 1.65152L72.935 1.64846C72.9262 1.63928 72.9145 1.63316 72.9057 1.62398L72.8354 1.55053L72.8266 1.55971C70.7523 -0.487541 67.2539 -0.459998 65.2323 1.65152C64.2039 2.72258 63.6355 4.15167 63.6355 5.67258C63.6355 7.19348 64.2039 8.62258 65.2323 9.69669C66.2607 10.7739 67.629 11.3645 69.0851 11.3645C70.5384 11.3645 71.9008 10.7739 72.9292 9.70282C72.9292 9.70282 74.4069 8.15031 75.361 7.16288C75.9167 6.58772 76.7879 5.694 76.7879 5.694L79.3076 3.04389C80.6524 1.7525 82.7532 1.77698 84.057 3.13876C85.3959 4.53725 85.3959 6.81708 84.057 8.21557C82.7268 9.60489 80.5704 9.61101 79.2285 8.24312L78.2219 7.37203C77.8124 7.01756 77.1974 7.04419 76.8199 7.43272V7.43272C76.4105 7.85425 76.4399 8.53343 76.8844 8.91791L77.7811 9.69364L77.7752 9.69976C77.7987 9.72424 77.8251 9.73954 77.8485 9.76096L78.0155 9.93233L78.0331 9.91703C79.0615 10.8657 80.3389 11.3614 81.631 11.3614C83.0256 11.3584 84.4203 10.8045 85.4838 9.69669C87.6051 7.47807 87.6051 3.86708 85.4838 1.64846C83.471 -0.450818 80.2745 -0.536503 78.1386 1.34244Z" fill="#FF575F"/>
<path d="M60.7944 20.5982H89.2056V20.5982C89.2056 26.0901 84.7536 30.5421 79.2617 30.5421H70.7383C65.2464 30.5421 60.7944 26.0901 60.7944 20.5982V20.5982Z" fill="#FF575F"/>
<path d="M57.5981 15.6262H64.3458V22.0187H57.5981C55.8329 22.0187 54.4019 20.5877 54.4019 18.8224C54.4019 17.0572 55.8329 15.6262 57.5981 15.6262Z" stroke="#FF575F" stroke-width="2.84112"/>
<rect x="60.7944" y="14.2057" width="28.4112" height="6.39252" fill="#FF575F"/>
</svg>
