<?xml version="1.0" standalone="no"?>
<!DOCTYPE svg PUBLIC "-//W3C//DTD SVG 20010904//EN"
 "http://www.w3.org/TR/2001/REC-SVG-20010904/DTD/svg10.dtd">
<svg version="1.0" xmlns="http://www.w3.org/2000/svg"
 width="140.000000pt" height="140.000000pt" viewBox="0 0 140.000000 140.000000"
 preserveAspectRatio="xMidYMid meet">

<g transform="translate(0.000000,140.000000) scale(0.100000,-0.100000)"
fill="#ef4e2b" stroke="none">
<path d="M906 1130 c-16 -5 -82 -62 -151 -130 -114 -112 -124 -120 -161 -120
-50 0 -79 20 -94 65 -14 43 1 97 33 120 35 24 99 19 127 -10 25 -26 54 -33 66
-14 3 6 -9 27 -29 47 -30 30 -44 36 -90 40 -85 7 -141 -35 -161 -121 -16 -69
40 -157 113 -177 65 -17 95 0 221 124 63 63 126 119 140 124 42 16 92 -7 114
-51 16 -33 17 -45 7 -78 -23 -75 -101 -94 -168 -41 -40 30 -63 32 -63 4 0 -22
61 -71 102 -83 72 -20 157 33 178 112 12 43 2 98 -25 137 -31 42 -107 68 -159
52z"/>
<path d="M236 730 c-65 -20 -103 -86 -86 -149 18 -69 72 -101 170 -101 53 0
58 -2 64 -24 9 -37 91 -121 143 -147 45 -22 59 -24 228 -24 214 0 248 9 319
84 66 71 77 106 83 249 l6 122 -449 -1 c-247 0 -462 -5 -478 -9z m124 -120 l0
-50 -58 0 c-64 0 -82 11 -82 50 0 39 18 50 82 50 l58 0 0 -50z"/>
</g>
</svg>
